# xmcd
#
# Track frame offsets:
#	150
#	14825
#	32584
#	52069
#	67076
#	84724
#	104077
#	126570
#	140648
#	161584
#	179426
#	197490
#
# Disc length: 2919 seconds
# Revision: 0
# Processed by: cddbd v1.5.2PL0 Copyright (c) Steve Scherf et al.
# Submitted via: dBpowerAMP V12.0
#
DISCID=bb0b650c
DTITLE=Various Artist - Blood Sweat and Tears
DYEAR=2011
DGENRE=Hip Hop
TTITLE0=Ace Hood featuring T-Pain - King Of The Streets
TTITLE1=Ace Hood - Go N' Get It
TTITLE2=Ace Hood featuring Yo Gotti - Errythang
TTITLE3=Ace Hood - Hustle Hard
TTITLE4=Ace Hood featuring Chris Brown - Body 2 Body
TTITLE5=Ace Hood featuring Kevin Cossom - Memory Lane
TTITLE6=Ace Hood - Letter To Me Ex's
TTITLE7=Ace Hood featuring Kevin Cossom - Beautiful
TTITLE8=Ace Hood - Lord Knows
TTITLE9=Ace Hood - Bitter World
TTITLE10=Ace Hood - Spoke To My Momma
TTITLE11=Ace Hood - Hustle Hart Remix
EXTD=
EXTT0=
EXTT1=
EXTT2=
EXTT3=
EXTT4=
EXTT5=
EXTT6=
EXTT7=
EXTT8=
EXTT9=
EXTT10=
EXTT11=
PLAYORDER=
